<svg width="48" height="32" viewBox="0 0 48 32" fill="none" xmlns="http://www.w3.org/2000/svg">
<rect x="0.4" y="0.4" width="47.2" height="31.2" rx="6" fill="#0079C1"/>
<rect x="0.4" y="0.4" width="47.2" height="31.2" rx="6" stroke="#F2F2F2" stroke-width="0.8"/>
<path d="M11.6115 12L8 19.9897H12.3234L12.8594 18.7158H14.0845L14.6205 19.9897H32.5863L33.7897 18.7489L34.9166 19.9897L40 20L36.3771 16.0172L40 12H34.9954L33.824 13.2179L32.7326 12H21.9658L21.0412 14.0622L20.095 12H15.7806V12.9392L15.3006 12H11.6115ZM12.448 13.1346H14.5555L16.9509 18.5524V13.1346H19.2596L21.1098 17.0191L22.815 13.1346H25.1121V18.8677H23.7143L23.7029 14.3752L21.6652 18.8677H20.4149L18.3657 14.3752V18.8677H15.4903L14.9452 17.5824H12L11.456 18.8666H9.91541L12.448 13.1346ZM26.3908 13.1346H32.0743L33.8126 15.0117L35.6069 13.1346H37.3452L34.704 16.016L37.3452 18.8643H35.528L33.7897 16.9654L31.9863 18.8643H26.3908V13.1346ZM13.4732 14.1046L12.5029 16.3942H14.4424L13.4732 14.1046ZM27.7943 14.3216V15.3682H30.8949V16.5347H27.7943V17.6773H31.2721L32.888 15.9944L31.3406 14.3206H27.7943V14.3216Z" fill="white"/>
</svg>
