<svg width="48" height="32" viewBox="0 0 48 32" fill="none" xmlns="http://www.w3.org/2000/svg">
<rect x="0.4" y="0.4" width="47.2" height="31.2" rx="6" fill="white"/>
<rect x="0.4" y="0.4" width="47.2" height="31.2" rx="6" stroke="#F2F2F2" stroke-width="0.8"/>
<path d="M15.6667 10.6666C15.4015 10.6666 15.1471 10.772 14.9596 10.9595C14.772 11.1471 14.6667 11.4014 14.6667 11.6666V20.3333C14.6667 20.5985 14.772 20.8529 14.9596 21.0404C15.1471 21.2279 15.4015 21.3333 15.6667 21.3333C15.9319 21.3333 16.1863 21.2279 16.3738 21.0404C16.5613 20.8529 16.6667 20.5985 16.6667 20.3333V11.6666C16.6667 11.4014 16.5613 11.1471 16.3738 10.9595C16.1863 10.772 15.9319 10.6666 15.6667 10.6666Z" fill="black"/>
<path d="M21.6667 10.6666H19.6667C19.1144 10.6666 18.6667 11.1143 18.6667 11.6666V20.3333C18.6667 20.8856 19.1144 21.3333 19.6667 21.3333H21.6667C22.219 21.3333 22.6667 20.8856 22.6667 20.3333V11.6666C22.6667 11.1143 22.219 10.6666 21.6667 10.6666Z" fill="black"/>
<path d="M25.6667 10.6666C25.4015 10.6666 25.1471 10.772 24.9596 10.9595C24.772 11.1471 24.6667 11.4014 24.6667 11.6666V20.3333C24.6667 20.5985 24.772 20.8529 24.9596 21.0404C25.1471 21.2279 25.4015 21.3333 25.6667 21.3333C25.9319 21.3333 26.1862 21.2279 26.3738 21.0404C26.5613 20.8529 26.6667 20.5985 26.6667 20.3333V11.6666C26.6667 11.4014 26.5613 11.1471 26.3738 10.9595C26.1862 10.772 25.9319 10.6666 25.6667 10.6666Z" fill="black"/>
<path d="M32.3334 10.6666H29.6667C29.1144 10.6666 28.6667 11.1143 28.6667 11.6666V20.3333C28.6667 20.8856 29.1144 21.3333 29.6667 21.3333H32.3334C32.8856 21.3333 33.3334 20.8856 33.3334 20.3333V11.6666C33.3334 11.1143 32.8856 10.6666 32.3334 10.6666Z" fill="black"/>
<path d="M11.6667 10.6666C11.4014 10.6666 11.1471 10.772 10.9595 10.9595C10.772 11.1471 10.6667 11.4014 10.6667 11.6666V20.3333C10.6667 20.5985 10.772 20.8529 10.9595 21.0404C11.1471 21.2279 11.4014 21.3333 11.6667 21.3333C11.9319 21.3333 12.1862 21.2279 12.3738 21.0404C12.5613 20.8529 12.6667 20.5985 12.6667 20.3333V11.6666C12.6667 11.5353 12.6408 11.4053 12.5905 11.2839C12.5403 11.1626 12.4666 11.0524 12.3738 10.9595C12.2809 10.8667 12.1707 10.793 12.0493 10.7427C11.928 10.6925 11.798 10.6666 11.6667 10.6666Z" fill="black"/>
<path d="M36.3333 10.6666C36.0681 10.6666 35.8138 10.772 35.6262 10.9595C35.4387 11.1471 35.3333 11.4014 35.3333 11.6666V20.3333C35.3333 20.5985 35.4387 20.8529 35.6262 21.0404C35.8138 21.2279 36.0681 21.3333 36.3333 21.3333C36.5986 21.3333 36.8529 21.2279 37.0405 21.0404C37.228 20.8529 37.3333 20.5985 37.3333 20.3333V11.6666C37.3333 11.4014 37.228 11.1471 37.0405 10.9595C36.8529 10.772 36.5986 10.6666 36.3333 10.6666Z" fill="black"/>
</svg>
