<svg width="48" height="32" viewBox="0 0 48 32" fill="none" xmlns="http://www.w3.org/2000/svg">
<rect x="0.4" y="0.4" width="47.2" height="31.2" rx="6" fill="#CC092F"/>
<rect x="0.4" y="0.4" width="47.2" height="31.2" rx="6" stroke="#F2F2F2" stroke-width="0.8"/>
<path d="M17.7549 23.9352C17.3606 23.928 16.9669 23.9712 16.584 24.0638C16.5138 24.3037 16.5227 24.6557 16.584 24.9042C16.9097 24.8247 17.2446 24.7872 17.5802 24.7925C18.1392 24.7925 18.4101 25.0155 18.4101 25.4701V25.5113C18.2421 25.4944 18.0431 25.4771 17.9036 25.4771C16.9771 25.4771 16.1816 25.8031 16.1816 26.6777C16.1816 27.664 16.8981 27.9966 17.9381 27.9966C18.4508 27.991 18.96 27.913 19.4501 27.7649V25.5472C19.4501 24.4838 18.8646 23.9608 17.7549 23.9352ZM18.4101 27.1253C18.2575 27.1507 18.103 27.1645 17.9481 27.1665C17.45 27.1665 17.1791 27.0206 17.1791 26.6777C17.1791 26.3348 17.45 26.1975 17.9481 26.1975C18.114 26.1975 18.3064 26.2144 18.4101 26.2231V27.1253Z" fill="white"/>
<path d="M15.7536 23.9867C15.2382 23.9867 14.9409 24.1837 14.6616 24.5353C14.6376 24.3632 14.5967 24.1938 14.5393 24.0296C14.4343 23.9949 14.2512 23.9883 14.0937 23.9883C13.947 23.9865 13.8006 24.0004 13.6569 24.0296V27.9129C13.788 27.9471 14.0064 27.9541 14.1987 27.9541C14.3802 27.9559 14.5615 27.9421 14.7405 27.9129V26.017C14.7405 25.2623 15.1425 24.8592 15.6843 24.8592C15.8039 24.8563 15.9237 24.8621 16.0425 24.8765C16.1049 24.5944 16.1107 24.3031 16.0597 24.0188C15.959 23.9981 15.8565 23.9873 15.7536 23.9867Z" fill="white"/>
<path d="M11.2296 23.9521C10.9151 23.9521 10.6089 24.0209 10.4169 24.1169V22.2115C10.0928 22.3235 9.78892 22.4856 9.51687 22.6917C9.37701 22.803 9.33333 22.9147 9.33333 23.0775V27.776C9.62145 27.8959 10.2069 27.999 10.7664 27.999C12.1818 27.999 12.9945 27.1499 12.9945 25.9238C12.9936 24.7067 12.4157 23.9521 11.2296 23.9521ZM10.8273 27.1339C10.7139 27.1339 10.5392 27.1339 10.4169 27.0926V24.9556C10.5652 24.8786 10.7752 24.8353 11.0469 24.8353C11.5887 24.8353 11.8769 25.2042 11.8769 25.8986C11.8739 26.6277 11.5333 27.1339 10.8252 27.1339H10.8273Z" fill="white"/>
<path d="M22.6053 23.0775V24.0122C22.4195 23.9677 22.2286 23.9474 22.0374 23.9521C20.84 23.9521 20.0273 24.7413 20.0273 26.0017C20.0273 27.288 20.8228 27.9998 22.0635 27.9998C22.6149 28.0051 23.1636 27.924 23.6889 27.7595V22.2115C23.3648 22.3237 23.0609 22.4857 22.7888 22.6917C22.649 22.8022 22.6053 22.9147 22.6053 23.0775ZM22.6053 27.0753C22.4553 27.1184 22.2995 27.1386 22.1433 27.1355C21.4263 27.1355 21.147 26.6722 21.147 26.0033C21.147 25.2573 21.4263 24.8027 22.1345 24.8027C22.2935 24.8007 22.4521 24.821 22.6053 24.8629V27.0753Z" fill="white"/>
<path d="M30.3563 25.6072L29.9195 25.4271C29.6675 25.3241 29.5175 25.2383 29.5175 25.0755C29.5175 24.8282 29.7448 24.7755 30.0421 24.7755C30.3897 24.7764 30.7348 24.832 31.0644 24.9404C31.117 24.677 31.117 24.4062 31.0644 24.1428C30.8023 24.0056 30.313 23.9368 29.8846 23.9368C29.0446 23.9368 28.4079 24.3827 28.4079 25.0496C28.4079 25.6497 28.67 25.9497 29.4041 26.2415L29.7448 26.3788C30.0682 26.5074 30.1648 26.5848 30.1648 26.7909C30.1648 27.0996 29.8502 27.1511 29.5881 27.1511C29.1509 27.1511 28.8191 27.0654 28.3995 26.9195C28.3294 27.1926 28.3294 27.4785 28.3995 27.7516C28.7578 27.94 29.2471 27.9989 29.7628 27.9989C30.5928 27.9989 31.2572 27.5703 31.2572 26.7983C31.2564 26.1644 30.9766 25.8644 30.3563 25.6072Z" fill="white"/>
<path d="M33.7295 27.1252C33.1877 27.1252 32.8294 26.7048 32.8294 25.9674C32.8294 25.2643 33.1175 24.8097 33.7383 24.8097C33.9754 24.8074 34.2104 24.8536 34.4284 24.9453C34.5085 24.6754 34.639 24.4225 34.8131 24.1993C34.4721 24.0279 34.1411 23.9335 33.5985 23.9335C32.401 23.9335 31.711 24.7652 31.711 25.9658C31.711 27.2092 32.4187 27.9981 33.643 27.9981C34.0886 27.9981 34.4994 27.921 34.8312 27.7409C34.6512 27.5175 34.5122 27.2651 34.4204 26.9949C34.1138 27.1165 33.9828 27.1252 33.7295 27.1252Z" fill="white"/>
<path d="M36.7622 23.9351C35.5471 23.9351 34.8659 24.7495 34.8659 25.976C34.8659 27.2195 35.5824 27.9997 36.7622 27.9997C37.9852 27.9997 38.6669 27.2022 38.6669 25.976C38.6669 24.7412 37.984 23.9351 36.7622 23.9351ZM36.7622 27.142C36.1591 27.142 35.9755 26.6618 35.9755 25.976C35.9755 25.3071 36.1591 24.7923 36.7622 24.7923C37.3825 24.7923 37.5573 25.2898 37.5573 25.976C37.5573 26.6961 37.3561 27.142 36.7622 27.142Z" fill="white"/>
<path d="M26.1876 23.9351C25.0167 23.9351 24.3001 24.7066 24.3001 25.9929C24.3001 27.2792 25.0603 27.9997 26.3623 27.9997C26.808 27.9997 27.2889 27.9226 27.5946 27.7767C27.6557 27.5052 27.6557 27.2239 27.5946 26.9524C27.1927 27.0637 26.8516 27.1325 26.4762 27.1325C25.873 27.1325 25.4535 26.9095 25.3661 26.2835H27.8307C27.8655 26.1891 27.8727 25.8713 27.8727 25.7432C27.8743 24.5867 27.2099 23.9351 26.1876 23.9351ZM25.3661 25.5041C25.4446 25.0326 25.7332 24.7495 26.17 24.7495C26.6593 24.7495 26.8516 25.0755 26.8693 25.5041H25.3661Z" fill="white"/>
<path d="M23.5388 7.38773C22.491 7.39145 21.4454 7.48051 20.4127 7.65398C20.9698 6.95651 21.6817 6.39293 22.4943 6.00612C23.3068 5.61931 24.1985 5.41946 25.1016 5.42178C26.5069 5.42178 27.9122 5.94191 28.8581 6.71552C29.029 6.85482 29.1601 6.8676 29.2915 6.74066C29.423 6.61372 29.4095 6.48719 29.2651 6.32232C28.0298 4.91483 26.218 3.96318 24.0772 4.00109C21.2796 4.05179 18.9024 5.78941 17.996 8.19885C17.1686 8.45232 16.4067 8.7569 15.7368 9.12454C15.5529 9.22593 15.4873 9.35287 15.5529 9.50495C15.6184 9.64426 15.7499 9.69537 15.9338 9.64426C16.5117 9.4794 17.1027 9.34009 17.7201 9.21315C17.6514 9.53859 17.6163 9.86997 17.6151 10.2023C17.5626 12.4217 18.7709 14.5266 20.6357 15.6806C20.8197 15.7948 20.9776 15.7948 21.0826 15.6555C21.1876 15.5162 21.1746 15.3892 21.0167 15.2495C19.8348 14.2097 19.1779 12.6624 19.1779 11.128C19.1745 10.3733 19.3311 9.6262 19.6378 8.93412C20.2552 8.88343 20.9247 8.84551 21.6605 8.84551C26.4414 8.84551 30.4738 10.3927 30.4738 12.4217C30.4738 13.4488 29.147 14.4759 27.5708 15.1609C27.1898 15.3258 27.1508 15.4399 27.2033 15.6048C27.2558 15.7569 27.4263 15.8076 27.6233 15.7441C30.3818 14.8563 32.4701 13.3981 32.4701 11.6354C32.4701 9.2387 28.5296 7.38773 23.5388 7.38773Z" fill="white"/>
<path d="M25.8214 19.578V14.4434C25.8214 14.2464 25.6278 14.1747 25.4682 14.2641L24.138 15.015V19.8257L25.566 19.8277C25.5995 19.8278 25.6327 19.8214 25.6637 19.8089C25.6947 19.7964 25.7228 19.7781 25.7465 19.7549C25.7703 19.7317 25.7891 19.7041 25.8019 19.6737C25.8148 19.6434 25.8214 19.6108 25.8214 19.578Z" fill="white"/>
<path d="M22.5191 16.1159V19.6665C22.519 19.6877 22.5232 19.7086 22.5314 19.7282C22.5396 19.7477 22.5517 19.7655 22.5669 19.7805C22.5821 19.7954 22.6002 19.8073 22.6201 19.8154C22.64 19.8235 22.6613 19.8277 22.6829 19.8277H23.6909V15.2681L22.6845 15.8368C22.633 15.8633 22.59 15.9035 22.5608 15.9529C22.5315 16.0023 22.517 16.0588 22.5191 16.1159Z" fill="white"/>
</svg>
