<svg width="48" height="32" viewBox="0 0 48 32" fill="none" xmlns="http://www.w3.org/2000/svg">
<rect x="0.4" y="0.4" width="47.2" height="31.2" rx="6" fill="#FDE100"/>
<rect x="0.4" y="0.4" width="47.2" height="31.2" rx="6" stroke="#F2F2F2" stroke-width="0.8"/>
<path fill-rule="evenodd" clip-rule="evenodd" d="M13.3334 12.4445L17.7736 15.4075L23.107 11.8519L20.8868 10.3663L23.7747 8.44662L29.9927 12.5948L19.7768 19.4054L21.9969 20.891L34.6667 12.4445L24 5.33337L13.3334 12.4445ZM34.6667 19.5556L30.2181 16.5927L24.8847 20.1482L27.1049 21.6255L24.217 23.5535L17.999 19.4054L28.2149 12.5948L25.9948 11.1091L13.3334 19.5556L24 26.6667L34.6667 19.5556ZM34.6667 8.29633L32.4382 9.78203L30.2181 8.29633L34.6667 5.33337V8.29633ZM13.3334 23.7038L15.5535 22.2181L17.7736 23.7038L13.3334 26.6667V23.7038Z" fill="#003882"/>
</svg>
