<svg width="48" height="32" viewBox="0 0 48 32" fill="none" xmlns="http://www.w3.org/2000/svg">
<rect x="0.4" y="0.4" width="47.2" height="31.2" rx="6" fill="#231F20"/>
<rect x="0.4" y="0.4" width="47.2" height="31.2" rx="6" stroke="#F2F2F2" stroke-width="0.8"/>
<path d="M12.0707 12.2787C12.4702 12.1451 12.8887 12.0774 13.3099 12.078C15.2007 12.078 16.7793 13.4256 17.1399 15.2168L19.8195 14.6683C19.2047 11.6243 16.5243 9.33338 13.3099 9.33338C12.5941 9.33274 11.8829 9.44833 11.2038 9.67567L12.0707 12.2787Z" fill="#FFCB05"/>
<path d="M8.90859 20.9953L10.7207 18.9386C10.3061 18.5707 9.97415 18.1187 9.74675 17.6123C9.51936 17.106 9.40172 16.557 9.40162 16.0016C9.40153 15.4462 9.51897 14.8971 9.74618 14.3907C9.9734 13.8843 10.3052 13.4321 10.7196 13.0641L8.90703 11.0076C7.5335 12.2291 6.66668 14.0137 6.66668 16.0002C6.66563 16.9449 6.86502 17.8789 7.25157 18.7402C7.63813 19.6014 8.203 20.3702 8.90859 20.9953Z" fill="#00A4E0"/>
<path d="M17.1396 16.7874C16.7765 18.5777 15.2 19.9227 13.3102 19.9227C12.8886 19.9235 12.4696 19.8554 12.0698 19.721L11.2024 22.3251C11.8821 22.5523 12.5939 22.6676 13.3102 22.6667C16.5215 22.6667 19.2014 20.3795 19.8188 17.3391L17.1396 16.7874Z" fill="#EF4123"/>
<path d="M22.163 19.0254C22.0586 18.8516 21.9654 18.6713 21.8839 18.4856C21.4596 17.4969 21.4393 16.4737 21.7972 15.491C22.1911 14.4138 22.9438 13.5891 23.9163 13.1691C25.1389 12.6411 26.4909 12.7452 27.6632 13.443C28.4076 13.8716 28.9351 14.5334 29.336 15.4692C29.387 15.5889 29.4319 15.717 29.4748 15.8256L22.163 19.0254ZM24.605 14.7575C23.7366 15.132 23.289 15.9494 23.3811 16.9079L27.0587 15.319C26.4266 14.5731 25.6034 14.3259 24.605 14.7575ZM27.5177 18.2142L27.5156 18.2163L27.4393 18.1641C27.2198 18.5217 26.8776 18.8112 26.4453 18.9998C25.6234 19.3588 24.8613 19.2663 24.3142 18.7842L24.2639 18.861C24.2639 18.8601 24.2631 18.8594 24.2624 18.8594L23.3293 20.2605C23.5614 20.4223 23.81 20.559 24.0708 20.6682C25.1014 21.0979 26.1561 21.0781 27.195 20.6245C27.9465 20.2979 28.5359 19.7993 28.9391 19.1676L27.5177 18.2142Z" fill="white"/>
<path d="M32.0324 11.1061V18.8959L33.239 19.3867L32.5535 20.9923L31.2216 20.4352C30.9227 20.3053 30.7185 20.1065 30.5652 19.8821C30.4179 19.6531 30.3077 19.3394 30.3077 18.9166V11.1061H32.0324Z" fill="white"/>
<path d="M35.1577 16.9117C35.1577 16.5967 35.225 16.2853 35.3552 15.9986C35.4853 15.712 35.6751 15.4566 35.912 15.2499L34.6741 13.8645C34.244 14.2461 33.8995 14.715 33.6634 15.2402C33.4273 15.7655 33.3051 16.335 33.3047 16.9112C33.3044 17.4874 33.4259 18.0571 33.6613 18.5826C33.8967 19.1081 34.2406 19.5775 34.6703 19.9596L35.9066 18.5729C35.6709 18.3656 35.4821 18.1102 35.3529 17.8237C35.2238 17.5371 35.1572 17.2262 35.1577 16.9117Z" fill="white"/>
<path d="M37.3574 19.1224C37.1204 19.1218 36.885 19.0832 36.6601 19.008L36.0689 20.7722C36.4837 20.9118 36.9181 20.983 37.3555 20.9833C39.3157 20.9852 40.9524 19.5892 41.3315 17.7337L39.5144 17.3613C39.4115 17.8591 39.1408 18.306 38.7479 18.6268C38.355 18.9476 37.8639 19.1227 37.3574 19.1224Z" fill="white"/>
<path d="M37.3628 12.844C36.926 12.8431 36.4919 12.9133 36.0774 13.0517L36.6632 14.8173C36.9588 14.7186 37.2719 14.684 37.5819 14.7157C37.8918 14.7475 38.1915 14.8449 38.4611 15.0015C38.7308 15.1581 38.9643 15.3704 39.1461 15.6242C39.328 15.8781 39.4541 16.1679 39.5161 16.4743L41.3334 16.1045C40.9595 14.2463 39.3244 12.8452 37.3628 12.844Z" fill="white"/>
</svg>
