<svg width="48" height="32" viewBox="0 0 48 32" fill="none" xmlns="http://www.w3.org/2000/svg">
<rect x="0.4" y="0.4" width="47.2" height="31.2" rx="6" fill="#822124"/>
<rect x="0.4" y="0.4" width="47.2" height="31.2" rx="6" stroke="#F2F2F2" stroke-width="0.8"/>
<path d="M12.6413 13.0231C12.8512 12.9022 13.1215 12.3519 12.8127 12.1228C12.7149 12.0503 12.5513 12.0292 12.3231 12.0615C12.1114 12.0914 11.9896 12.1515 11.9069 12.2456C11.774 12.397 11.6521 12.8535 11.858 13.0232C12.0585 13.1882 12.5077 13.0999 12.6413 13.0231ZM9.65478 12.1228C9.50441 12.9383 9.33503 13.7379 9.16517 14.5371C8.07465 14.5467 6.96122 14.5821 5.90939 14.5166C6.10804 13.7347 6.25053 12.9058 6.44795 12.1228H5.27293C4.85232 14.1173 4.46965 16.1437 4 18.0972H5.19955C5.38765 17.0952 5.56369 16.0829 5.81148 15.1305C6.83424 15.1094 8.06002 15.0727 9.04284 15.151C8.84019 16.1411 8.59534 17.0957 8.40638 18.0972H9.60593C9.99146 16.0732 10.3974 14.0666 10.8789 12.1228H9.65478ZM26.6192 13.8415C25.6859 13.5264 24.9521 14.0589 24.6119 14.5576C24.6891 14.3357 24.7209 14.0759 24.7834 13.8415H23.8531C23.6257 15.3156 23.2905 16.6995 22.9719 18.0972H24.0246C24.1721 17.2676 24.2358 16.1492 24.5631 15.3556C24.8247 14.7214 25.5092 14.1811 26.497 14.4758C26.5107 14.2418 26.5908 14.0632 26.6192 13.8415ZM27.2066 17.0947C27.1096 16.8852 27.0846 16.5393 27.1088 16.2762C27.1632 15.6851 27.421 14.9653 27.8188 14.6394C28.3677 14.1897 29.4514 14.2642 30.3158 14.5167C30.3425 14.2732 30.401 14.056 30.4382 13.8211C29.0206 13.6276 27.6754 13.748 26.9622 14.3735C26.2638 14.9859 25.8063 16.3933 26.1297 17.2789C26.5084 18.3152 28.2066 18.3715 29.5814 17.9746C29.6422 17.7663 29.6745 17.5341 29.7283 17.3199C28.9769 17.646 27.5406 17.8155 27.2066 17.0947ZM39.0304 13.8619C38.1001 13.4731 37.3255 14.1255 37.0232 14.5166C37.1093 14.3159 37.1142 14.0472 37.1944 13.8414H36.2643C36.0134 15.3027 35.7112 16.721 35.3586 18.0972H36.4357C36.4425 17.5331 36.5751 17.1159 36.6804 16.5628C36.9055 15.3816 37.2361 14.0864 38.8838 14.4757C38.9382 14.276 38.961 14.0494 39.0304 13.8619ZM11.5642 13.8415C11.5357 13.8449 11.5376 13.8738 11.5396 13.9028C11.3077 15.3526 10.9938 16.734 10.6584 18.0972H11.711C11.964 16.6376 12.2537 15.209 12.6168 13.8414L11.5642 13.8415ZM20.8175 13.7597C20.0569 13.8087 19.414 13.9916 18.9571 14.394C18.3966 14.8874 17.9429 15.9784 18.0758 16.972C18.2656 18.3894 20.3771 18.3385 22.066 17.995C22.0948 17.7462 22.1668 17.5335 22.2128 17.2993C21.5172 17.5169 20.3092 17.8206 19.5934 17.4426C19.0532 17.157 19.05 16.4342 19.2262 15.8058C20.3613 15.7756 21.5411 15.7813 22.6778 15.8058C22.7499 15.3604 22.9562 14.8748 22.7757 14.435C22.5377 13.8542 21.6851 13.7038 20.8175 13.7597ZM21.8211 15.3146H19.3486C19.4269 14.8396 19.9383 14.3174 20.744 14.2916C21.5023 14.2674 22.0453 14.5243 21.8211 15.3146ZM16.8273 13.8415C15.9364 13.5618 14.8507 13.8957 14.3799 14.2133C14.3816 14.2273 14.3687 14.2292 14.3548 14.2302C14.3628 14.2246 14.3715 14.2189 14.3799 14.2133L14.3794 14.2098C14.3873 14.0732 14.4448 13.9781 14.4528 13.8415H13.547C13.1696 15.9403 12.722 17.9805 12.2497 20H13.3023C13.4546 19.2135 13.5552 18.3837 13.7675 17.6471C14.0078 18.4218 15.5775 18.2738 16.2399 17.9745C17.6065 17.3567 18.6606 14.417 16.8273 13.8415ZM15.9951 17.2993C15.4319 17.7978 14.0474 17.7903 13.9387 16.9514C13.8915 16.5865 14.0541 16.2038 14.1347 15.8262C14.216 15.444 14.2747 15.0773 14.3549 14.7418C14.9096 14.1757 16.5396 14.1072 16.705 15.0487C16.8484 15.866 16.4614 16.8864 15.9951 17.2993ZM42.9471 12.0001C42.8569 12.6612 42.7363 13.297 42.58 13.9028C39.998 13.2197 38.4145 14.8075 38.443 16.7673C38.4486 17.1464 38.5267 17.5222 38.8101 17.7903C39.2991 18.2522 40.6984 18.3629 41.4051 17.9744C41.5418 17.8993 41.6816 17.7625 41.7722 17.6676C41.8403 17.5962 41.9484 17.4091 41.9681 17.463C41.9308 17.6705 41.8753 17.863 41.8703 18.0972H42.825C43.0091 15.8912 43.5779 14.007 44 12L42.9471 12.0001ZM40.5972 17.6266C39.8886 17.6393 39.5362 17.2728 39.52 16.665C39.4917 15.6006 40.0503 14.4181 41.1847 14.3121C41.7128 14.2627 42.0952 14.3654 42.4821 14.4758C42.1268 15.6714 42.2551 17.5969 40.5972 17.6266ZM31.5151 13.8415C31.4633 14.0846 31.3838 14.3046 31.3193 14.5371C31.9405 14.4069 33.8747 14.0078 34.0611 14.7008C34.1229 14.931 34.0162 15.1756 33.9386 15.3556C32.1897 15.2171 30.7641 15.4599 30.3891 16.5013C30.1379 17.1988 30.4172 17.8852 30.9521 18.0768C31.9824 18.4458 33.2356 18.0231 33.6694 17.4426C33.6243 17.6435 33.5816 17.8467 33.5961 18.0972H34.5017C34.5114 17.3722 34.6377 16.7854 34.771 16.133C34.8847 15.5774 35.0986 15.0274 35.0648 14.5371C34.9869 13.4142 32.7611 13.8114 31.5151 13.8415ZM33.2287 17.2788C32.6863 17.7227 31.1635 17.8487 31.3193 16.7878C31.4486 15.9066 32.5966 15.7193 33.8406 15.8465C33.7482 16.3286 33.6421 16.9406 33.2287 17.2788Z" fill="white"/>
</svg>
