<svg width="48" height="32" viewBox="0 0 48 32" fill="none" xmlns="http://www.w3.org/2000/svg">
<rect x="0.4" y="0.4" width="47.2" height="31.2" rx="6" fill="#EC7000"/>
<rect x="0.4" y="0.4" width="47.2" height="31.2" rx="6" stroke="#F2F2F2" stroke-width="0.8"/>
<path fill-rule="evenodd" clip-rule="evenodd" d="M16.8906 5.33341H31.1103L31.2948 5.33718L31.4742 5.35224L31.653 5.37482L31.8281 5.40557L32 5.44572L32.1694 5.49341L32.3344 5.54926L32.4957 5.61325L32.6532 5.68416L32.8063 5.76259L32.9556 5.84918L33.0999 5.94141L33.2386 6.03992L33.3729 6.14659L33.5027 6.2589L33.6251 6.37623L33.7437 6.49984L33.8547 6.62784L33.9614 6.76274L34.0599 6.90266L34.1515 7.04698L34.2368 7.19631L34.3159 7.3494L34.3881 7.5069L34.4502 7.66815L34.5066 7.83317L34.5543 8.00258L34.5945 8.1745L34.6252 8.34956L34.6478 8.5265L34.6623 8.70783L34.6666 8.89104V23.1134L34.6623 23.2961L34.6478 23.4761L34.6252 23.6548L34.5945 23.8294L34.5543 24.0015L34.5066 24.1707L34.4502 24.3348L34.3881 24.4961L34.3159 24.6548L34.2368 24.8068L34.1515 24.9561L34.0599 25.1001L33.9614 25.2401L33.8547 25.3734L33.7437 25.5027L33.6251 25.6267L33.5027 25.7441L33.3729 25.8561L33.2386 25.9614L33.0999 26.0601L32.9556 26.1521L32.8063 26.2374L32.6532 26.3161L32.4957 26.3881L32.3344 26.4507L32.1694 26.5067L32 26.5547L31.8281 26.5947L31.653 26.6254L31.4742 26.6481L31.2948 26.6627L31.1103 26.6667H16.8906L16.7066 26.6627L16.5266 26.6481L16.3479 26.6254L16.1732 26.5947L15.9999 26.5547L15.8319 26.5067L15.6666 26.4507L15.5053 26.3881L15.3466 26.3161L15.1933 26.2374L15.0453 26.1521L14.9 26.0601L14.7613 25.9614L14.6266 25.8561L14.4973 25.7441L14.3746 25.6267L14.256 25.5027L14.1453 25.3734L14.0399 25.2401L13.94 25.1001L13.848 24.9561L13.7626 24.8068L13.684 24.6548L13.612 24.4961L13.5493 24.3348L13.4933 24.1707L13.4453 24.0015L13.4053 23.8294L13.3746 23.6548L13.352 23.4761L13.3373 23.2961L13.3333 23.1134V8.89104L13.3373 8.70783L13.352 8.5265L13.3746 8.34956L13.4053 8.1745L13.4453 8.00258L13.4933 7.83317L13.5493 7.66815L13.612 7.5069L13.684 7.3494L13.7626 7.19631L13.848 7.04698L13.94 6.90266L14.0399 6.76274L14.1453 6.62784L14.256 6.49984L14.3746 6.37623L14.4973 6.2589L14.6266 6.14659L14.7613 6.03992L14.9 5.94141L15.0453 5.84918L15.1933 5.76259L15.3466 5.68416L15.5053 5.61325L15.6666 5.54926L15.8319 5.49341L15.9999 5.44572L16.1732 5.40557L16.3479 5.37482L16.5266 5.35224L16.7066 5.33718L16.8906 5.33341Z" fill="#003399"/>
<path fill-rule="evenodd" clip-rule="evenodd" d="M15.1103 23.1107H16.769V15.9986H15.1103V23.1107Z" fill="#FFFF05"/>
<path fill-rule="evenodd" clip-rule="evenodd" d="M24.2016 17.6251H24.1068L24.0133 17.6283L23.9211 17.632L23.832 17.6377L23.7442 17.6427L23.6576 17.6509L23.5722 17.6603L23.4882 17.6697L23.4066 17.6816L23.3269 17.6935L23.2478 17.7067L23.1707 17.7211L23.096 17.7362L23.0226 17.7519L22.9504 17.7694L22.8802 17.787L22.8118 17.8052L22.7453 17.824L22.6813 17.8441L22.6185 17.8642L22.557 17.8843L22.4987 17.9056L22.4416 17.9269L22.3864 17.9495L22.333 17.9708L22.2816 17.9934L22.232 18.016L22.1837 18.0386L22.1385 18.0612L22.0946 18.0838L22.0532 18.107L22.013 18.1296L22.3255 19.1774L22.3613 19.1561L22.3989 19.1348L22.4372 19.1134L22.4773 19.0934L22.5188 19.0733L22.5614 19.0532L22.6053 19.0331L22.6505 19.0149L22.6976 18.9961L22.7453 18.9773L22.7936 18.9585L22.8425 18.9415L22.8921 18.9252L22.9429 18.9083L22.9944 18.8919L23.0464 18.8775L23.0998 18.8625L23.1531 18.8493L23.2077 18.8361L23.261 18.8242L23.3162 18.8123L23.3721 18.8016L23.4267 18.7922L23.4825 18.7828L23.5371 18.7746L23.5936 18.7683L23.6494 18.7614L23.704 18.7577L23.7598 18.7533L23.8144 18.7495L23.8709 18.7483H23.9255L24.0133 18.7495L24.0987 18.7533L24.1783 18.7602L24.253 18.7683L24.3252 18.7803L24.3936 18.7934L24.4576 18.8091L24.5172 18.8267L24.5749 18.8468L24.6282 18.8681L24.6772 18.8907L24.7223 18.9145L24.765 18.9403L24.8052 18.9666L24.8428 18.9948L24.8761 19.0225L24.9068 19.0519L24.9357 19.0827L24.9614 19.1122L24.984 19.1429L25.0041 19.1749L25.0229 19.2057L25.0386 19.2358L25.053 19.2665L25.0655 19.2973L25.0743 19.3268L25.0825 19.3563L25.0894 19.3839L25.0944 19.4121L25.0975 19.4385L25.1001 19.4642V19.488V19.5451L24.9012 19.547L24.7066 19.552L24.5172 19.5614L24.3333 19.5746L24.1545 19.5922L23.9813 19.6148L23.8119 19.6399L23.6494 19.6706L23.4919 19.7039L23.3413 19.7428L23.1945 19.7854L23.0546 19.8319L22.9216 19.8827L22.7936 19.9373L22.6706 19.9963L22.5545 20.059L22.4453 20.1255L22.3424 20.1958L22.2452 20.2705L22.1561 20.3508L22.072 20.4334L21.9961 20.52L21.9265 20.612L21.8625 20.7067L21.8079 20.8054L21.7589 20.9094L21.7175 21.016L21.6843 21.128L21.6573 21.2427L21.6372 21.3614L21.6265 21.4854L21.6228 21.6121L21.624 21.688L21.629 21.764L21.6385 21.84L21.6523 21.9147L21.6692 21.9893L21.6893 22.064L21.7131 22.1374L21.7414 22.2094L21.7721 22.28L21.8079 22.3494L21.8468 22.4174L21.8882 22.484L21.9334 22.5493L21.9829 22.612L22.0363 22.6734L22.0921 22.7321L22.1517 22.788L22.2145 22.8414L22.2816 22.8921L22.3506 22.9401L22.424 22.9854L22.5012 23.028L22.5815 23.0667L22.6656 23.1014L22.7522 23.1334L22.8413 23.1614L22.936 23.1854L23.032 23.2053L23.1318 23.2213L23.2347 23.2334L23.3413 23.24L23.4505 23.2427L23.517 23.2414L23.5829 23.2387L23.6469 23.236L23.7109 23.2307L23.773 23.224L23.8358 23.216L23.8972 23.2067L23.9587 23.1961L24.0183 23.1827L24.0773 23.1694L24.1357 23.1547L24.1934 23.1387L24.2492 23.1214L24.3051 23.1027L24.3597 23.0814L24.413 23.06L24.4651 23.0374L24.5172 23.0133L24.568 22.9894L24.6176 22.9627L24.6652 22.9347L24.7117 22.9067L24.7587 22.8761L24.8026 22.8454L24.8466 22.8134L24.8892 22.7801L24.9306 22.7454L24.9695 22.7093L25.0078 22.6734L25.0455 22.6361L25.0812 22.5973L25.1157 22.5574H25.1346L25.3159 23.1107H26.6655V19.9586L26.6636 19.8388L26.6574 19.7214L26.648 19.6054L26.6348 19.4905L26.6172 19.3776L26.5946 19.2665L26.5695 19.1586L26.5388 19.0532L26.5024 18.9497L26.4641 18.8493L26.4183 18.752L26.3694 18.6573L26.3148 18.5657L26.2558 18.4772L26.1905 18.3919L26.1215 18.3109L26.0469 18.2331L25.9653 18.1603L25.8787 18.0907L25.7865 18.0254L25.6892 17.9639L25.5851 17.9081L25.4759 17.856L25.3598 17.8096L25.2387 17.7669L25.1095 17.7305L24.9746 17.6985L24.8334 17.6722L24.6853 17.6521L24.5303 17.6377L24.3691 17.6283L24.2016 17.6251ZM25.1477 21.144V21.176L25.1465 21.2094L25.144 21.2427L25.1415 21.2774L25.1371 21.3107L25.1333 21.3454L25.1277 21.3787L25.1201 21.412L25.117 21.424L25.112 21.4414L25.1082 21.4574L25.1038 21.4681L25.0988 21.4814L25.0932 21.4947L25.0787 21.528L25.0624 21.56L25.0455 21.592L25.0266 21.624L25.0066 21.6547L24.9852 21.6867L24.9626 21.7173L24.9388 21.7467L24.9131 21.776L24.888 21.8054L24.8597 21.8334L24.8309 21.8613L24.8014 21.888L24.7706 21.9134L24.7374 21.9387L24.7041 21.9627L24.669 21.9854L24.6345 22.008L24.5975 22.0281L24.5598 22.048L24.5216 22.0667L24.4814 22.0827L24.4412 22.0987L24.3986 22.1134L24.3559 22.1254L24.3132 22.1374L24.2681 22.1467L24.2229 22.1547L24.1771 22.1614L24.1294 22.1653L24.0811 22.1694H24.0334H23.9907L23.9493 22.1667L23.9092 22.164L23.869 22.1587L23.8307 22.152L23.7931 22.1454L23.7561 22.136L23.7197 22.1254L23.6864 22.1147L23.6519 22.1013L23.6199 22.0867L23.5892 22.0707L23.5584 22.0547L23.5308 22.036L23.5026 22.016L23.4775 21.9961L23.4518 21.9733L23.4292 21.9494L23.4066 21.9253L23.3865 21.8987L23.3677 21.8707L23.3495 21.8427L23.3332 21.812L23.3187 21.7813L23.3068 21.7493L23.2949 21.7147L23.2855 21.68L23.2773 21.6441L23.2704 21.6053L23.2667 21.5667L23.2642 21.5267L23.2629 21.4854L23.2642 21.4387L23.2679 21.3947L23.2748 21.3507L23.2824 21.3081L23.293 21.268L23.3068 21.2281L23.3225 21.1907L23.3401 21.1534L23.3602 21.1174L23.3815 21.0841L23.4053 21.0507L23.4317 21.0187L23.4599 20.9881L23.4907 20.96L23.5227 20.932L23.5572 20.9054L23.5936 20.8787L23.6306 20.8547L23.6707 20.832L23.7122 20.8094L23.7548 20.788L23.8 20.768L23.8452 20.7494L23.8935 20.7321L23.9437 20.7147L23.9945 20.7001L24.0466 20.6854L24.1012 20.6707L24.1558 20.6587L24.2135 20.6467L24.2706 20.6361L24.3308 20.6267L24.3867 20.6187L24.445 20.6107L24.504 20.6041L24.5655 20.5974L24.6263 20.5934L24.6903 20.5881L24.7543 20.5854L24.8202 20.5827L24.8597 20.5814L24.8999 20.58L24.9413 20.5787H24.9815H25.0229H25.0637H25.1051H25.1477V21.144Z" fill="#FFFF05"/>
<path fill-rule="evenodd" clip-rule="evenodd" d="M31.2465 17.7813V20.9053V20.952L31.244 20.9973L31.2396 21.0413L31.2333 21.084L31.2264 21.1267L31.217 21.1666L31.2051 21.2067L31.1907 21.244L31.1788 21.2746L31.1637 21.3053L31.148 21.336L31.1317 21.3667L31.1148 21.396L31.0959 21.4266L31.0759 21.4573L31.0545 21.4866L31.0319 21.516L31.0093 21.5453L30.9836 21.5747L30.9585 21.6026L30.9322 21.6293L30.9039 21.656L30.8744 21.6813L30.8437 21.7066L30.8117 21.7306L30.7797 21.7546L30.7452 21.7759L30.7107 21.7973L30.673 21.816L30.636 21.8346L30.5971 21.852L30.557 21.8666L30.5162 21.8813L30.4735 21.8933L30.429 21.9039L30.3838 21.912L30.3386 21.9199L30.2903 21.924L30.2426 21.928H30.1918L30.1303 21.9267L30.0707 21.9226L30.0117 21.916L29.9559 21.9053L29.9025 21.8933L29.8505 21.8773L29.8015 21.8586L29.7545 21.8373L29.7093 21.8147L29.6666 21.788L29.6252 21.7586L29.5863 21.7266L29.5505 21.6933L29.5148 21.656L29.4828 21.6173L29.452 21.576L29.4225 21.532L29.3962 21.4853L29.3717 21.436L29.3479 21.3853L29.3278 21.332L29.3077 21.276L29.2908 21.2173L29.2757 21.1573L29.2625 21.0947L29.2506 21.0307L29.2412 20.964L29.2331 20.8946L29.2268 20.824L29.2224 20.7506L29.2199 20.676L29.2186 20.5987V17.7788H27.5998V20.8946V20.9733L27.6023 21.0493L27.6055 21.1226L27.6092 21.196L27.6149 21.268L27.6212 21.3386L27.6293 21.4066L27.6375 21.4746L27.6481 21.54L27.6588 21.604L27.6707 21.6666L27.6852 21.7279L27.7002 21.788L27.7159 21.8467L27.7322 21.9039L27.7504 21.9587L27.7692 22.0133L27.7906 22.0666L27.8106 22.1187L27.8332 22.1693L27.8558 22.2186L27.8784 22.2666L27.9041 22.3133L27.9292 22.36L27.9543 22.404L27.9813 22.4479L28.0095 22.4906L28.0384 22.5306L28.0679 22.5706L28.0986 22.6093L28.1294 22.6466L28.1614 22.6826L28.1946 22.7186L28.2291 22.7519L28.2637 22.7853L28.2988 22.8159L28.3358 22.8466L28.3722 22.876L28.4105 22.904L28.4494 22.9306L28.4895 22.956L28.5291 22.98L28.5705 23.0026L28.6119 23.0253L28.6546 23.0453L28.6985 23.0653L28.7424 23.0826L28.7882 23.1L28.8346 23.116L28.8798 23.1306L28.9281 23.1453L28.9745 23.1573L29.0241 23.1693L29.0718 23.18L29.1214 23.1906L29.1722 23.1986L29.2224 23.2066L29.2732 23.2133L29.3253 23.2186L29.3774 23.224L29.4307 23.228L29.484 23.2293L29.5386 23.2319H29.5932H29.6415L29.6879 23.2306L29.7331 23.2293L29.7783 23.2266L29.8241 23.2226L29.868 23.2186L29.9119 23.2146L29.9546 23.208L29.996 23.2026L30.0374 23.1946L30.0788 23.1879L30.1184 23.1786L30.1573 23.1706L30.1962 23.16L30.2345 23.1493L30.2721 23.1386L30.3436 23.1146L30.4145 23.0893L30.481 23.0626L30.5463 23.036L30.609 23.0066L30.6693 22.9773L30.7264 22.9453L30.781 22.9133L30.833 22.8799L30.8839 22.8466L30.9322 22.812L30.9786 22.7773L31.0225 22.7413L31.0639 22.7039L31.1028 22.6666L31.1399 22.628L31.1756 22.5906L31.2095 22.5533L31.2396 22.5173L31.2691 22.4826L31.2973 22.4493L31.3224 22.4159L31.345 22.3853L31.3664 22.3533L31.5747 23.1106H32.8892V17.7813H31.2465Z" fill="#FFFF05"/>
<path fill-rule="evenodd" clip-rule="evenodd" d="M18.3252 15.9988V17.7789H17.5692V18.9936H18.3252V21.1614L18.3265 21.2281L18.3279 21.2934L18.3292 21.3587L18.3319 21.4214L18.3359 21.4841L18.3412 21.5454L18.3466 21.6053L18.3532 21.6654L18.3599 21.7227L18.3679 21.78L18.3772 21.8361L18.3879 21.8907L18.3986 21.944L18.4106 21.9974L18.4225 22.048L18.4359 22.0987L18.4505 22.148L18.4665 22.196L18.4825 22.2427L18.4999 22.288L18.5185 22.3334L18.5372 22.376L18.5572 22.4187L18.5785 22.4587L18.5998 22.4987L18.6226 22.5374L18.6465 22.5747L18.6719 22.612L18.6972 22.6467L18.7239 22.68L18.7519 22.7134L18.7799 22.744L18.8065 22.7707L18.8332 22.7974L18.8612 22.8227L18.8892 22.848L18.9198 22.872L18.9505 22.896L18.9838 22.92L19.0172 22.9427L19.0505 22.9653L19.0866 22.9867L19.1225 23.0067L19.1598 23.028L19.1986 23.0467L19.2372 23.0654L19.2786 23.0841L19.3185 23.1001L19.3612 23.1174L19.4039 23.1321L19.4478 23.1467L19.4919 23.16L19.5372 23.1733L19.5839 23.184L19.6305 23.1947L19.6788 23.204L19.7265 23.2134L19.7761 23.2213L19.825 23.2267L19.8758 23.232L19.9266 23.2373L19.9787 23.24L20.0308 23.2414L20.0841 23.2427L20.172 23.2414L20.2529 23.2387L20.3295 23.2347L20.3985 23.2294L20.4637 23.2227L20.524 23.2147L20.5811 23.2053L20.6331 23.1947L20.684 23.184L20.7304 23.172L20.7743 23.1587L20.8182 23.1454L20.9011 23.1161L20.9826 23.0854V21.8467L20.9613 21.8547L20.9331 21.8627L20.8998 21.8707L20.8584 21.8773L20.812 21.8841L20.7599 21.888L20.704 21.892L20.6438 21.8933L20.5905 21.892L20.5409 21.8894L20.4932 21.8841L20.448 21.876L20.4054 21.8667L20.3652 21.856L20.3263 21.8427L20.2906 21.8267L20.2573 21.8094L20.2253 21.7907L20.1946 21.768L20.1676 21.7454L20.1412 21.72L20.1174 21.6934L20.0948 21.664L20.0747 21.632L20.0559 21.6L20.0383 21.5641L20.0226 21.528L20.0076 21.4894L19.9957 21.448L19.9837 21.4067L19.9743 21.3614L19.9649 21.316L19.9586 21.268L19.9517 21.2174L19.9467 21.1667L19.9423 21.1134L19.9398 21.0574L19.9373 21.0014L19.936 20.9427V20.8827V18.9936H20.9651V17.7789H19.936V15.9988H18.3252Z" fill="#FFFF05"/>
<path fill-rule="evenodd" clip-rule="evenodd" d="M30.6346 15.9975L29.6344 17.4349H30.7914L32.2013 15.9975H30.6346Z" fill="#FFFF05"/>
</svg>
