<svg width="48" height="32" viewBox="0 0 48 32" fill="none" xmlns="http://www.w3.org/2000/svg">
<rect x="0.4" y="0.4" width="47.2" height="31.2" rx="6" fill="white"/>
<rect x="0.4" y="0.4" width="47.2" height="31.2" rx="6" stroke="#F2F2F2" stroke-width="0.8"/>
<path d="M28.1463 8.66211H19.8539V23.3378H28.1463V8.66211Z" fill="#FF5F00"/>
<path d="M20.3805 16C20.3792 14.5866 20.7044 13.1914 21.3315 11.9201C21.9586 10.6488 22.8712 9.53471 24.0001 8.6621C22.6021 7.57985 20.9231 6.90682 19.155 6.71993C17.3869 6.53304 15.6011 6.83982 14.0017 7.60522C12.4023 8.37062 11.0538 9.56375 10.1104 11.0482C9.16696 12.5327 8.66666 14.2487 8.66666 16C8.66666 17.7512 9.16696 19.4672 10.1104 20.9517C11.0538 22.4362 12.4023 23.6293 14.0017 24.3947C15.6011 25.1601 17.3869 25.4669 19.155 25.28C20.9231 25.0931 22.6021 24.4201 24.0001 23.3378C22.8712 22.4652 21.9586 21.3511 21.3315 20.0798C20.7044 18.8085 20.3792 17.4133 20.3805 16Z" fill="#EB001B"/>
<path d="M39.3333 16C39.3334 17.7512 38.8331 19.4672 37.8898 20.9516C36.9464 22.4361 35.5979 23.6293 33.9986 24.3947C32.3992 25.1601 30.6134 25.4669 28.8454 25.28C27.0773 25.0931 25.3983 24.4201 24.0003 23.3378C25.1283 22.4643 26.0401 21.35 26.6671 20.0789C27.2942 18.8078 27.6199 17.4131 27.6199 16C27.6199 14.5868 27.2942 13.1921 26.6671 11.921C26.0401 10.6499 25.1283 9.53559 24.0003 8.66209C25.3983 7.57985 27.0773 6.90682 28.8454 6.71993C30.6134 6.53304 32.3992 6.83983 33.9986 7.60524C35.5979 8.37065 36.9464 9.56378 37.8898 11.0483C38.8331 12.5328 39.3334 14.2487 39.3333 16Z" fill="#F79E1B"/>
<path d="M38.4289 21.7834V21.483H38.5519V21.4217H38.2386V21.483H38.3617V21.7834H38.4289ZM39.0372 21.7834V21.4211H38.9411L38.8307 21.6703L38.7202 21.4211H38.6241V21.7834H38.6919V21.5101L38.7955 21.7457H38.8658L38.9694 21.5096V21.7834H39.0372Z" fill="#F79E1B"/>
</svg>
