<svg width="48" height="32" viewBox="0 0 48 32" fill="none" xmlns="http://www.w3.org/2000/svg">
<rect x="0.4" y="0.4" width="47.2" height="31.2" rx="6" fill="white"/>
<rect x="0.4" y="0.4" width="47.2" height="31.2" rx="6" stroke="#F2F2F2" stroke-width="0.8"/>
<path d="M27.0538 20.3861C26.7873 20.3543 26.5391 20.2341 26.349 20.0447L23.9995 17.7012L21.6501 20.0447C21.4599 20.2341 21.2118 20.3543 20.9453 20.3861L19.2646 20.4003L22.0633 23.1988C22.5771 23.7119 23.2735 24.0001 23.9995 24.0001C24.7256 24.0001 25.422 23.7119 25.9358 23.1988L28.7344 20.4003L27.0538 20.3861Z" fill="#32BCAD"/>
<path d="M20.9455 11.614C21.212 11.6458 21.4601 11.766 21.6503 11.9554L23.9995 14.2999L26.349 11.9554C26.5391 11.766 26.7873 11.6458 27.0538 11.614L28.7342 11.5998L25.9358 8.80129C25.422 8.2882 24.7256 8 23.9995 8C23.2735 8 22.5771 8.2882 22.0633 8.80129L19.2646 11.5998L20.9455 11.614Z" fill="#32BCAD"/>
<path d="M31.1971 14.0621L29.9347 12.7998H28.8281C28.8177 12.7998 28.8081 12.801 28.7967 12.801H27.4451C27.2862 12.801 27.1337 12.864 27.0212 12.9762L24.5648 15.4263C24.4148 15.5761 24.2115 15.6602 23.9996 15.6602C23.7876 15.6602 23.5844 15.5761 23.4344 15.4263L20.9779 12.9762C20.8654 12.864 20.713 12.801 20.5541 12.801H19.2025C19.1919 12.801 19.1815 12.801 19.1711 12.7998H18.0645L16.802 14.0621C16.3192 14.5432 16.0338 15.1876 16.002 15.8685C16.002 15.8809 16.002 15.8933 16.0006 15.9055C15.9992 15.9177 16.0006 15.9255 16.0006 15.9341C16.0006 15.9561 16.0006 15.9779 16.0006 15.9999V16.0073C16.0006 16.0273 16.0006 16.0461 16.0006 16.0657C16.0006 16.0799 16.0006 16.0943 16.0022 16.1085C16.0022 16.1161 16.0022 16.1237 16.0022 16.1313C16.034 16.8123 16.3194 17.4567 16.8022 17.9378L18.0645 19.2001H19.1711C19.1815 19.2001 19.1911 19.1989 19.2025 19.1989H20.5541C20.713 19.1989 20.8654 19.1359 20.9779 19.0237L23.4344 16.5736C23.5844 16.4238 23.7876 16.3397 23.9996 16.3397C24.2115 16.3397 24.4148 16.4238 24.5648 16.5736L27.0212 19.0237C27.1337 19.1359 27.2862 19.1989 27.4451 19.1989H28.7967C28.8073 19.1989 28.8167 19.1989 28.8281 19.2001H29.9347L31.1971 17.9378C31.4517 17.6834 31.6536 17.3813 31.7913 17.0488C31.9291 16.7162 32 16.3599 32 15.9999C32 15.64 31.9291 15.2836 31.7913 14.9511C31.6536 14.6186 31.4517 14.3165 31.1971 14.0621Z" fill="#32BCAD"/>
</svg>
