<svg width="48" height="32" viewBox="0 0 48 32" fill="none" xmlns="http://www.w3.org/2000/svg">
<rect x="0.4" y="0.4" width="47.2" height="31.2" rx="6" fill="white"/>
<rect x="0.4" y="0.4" width="47.2" height="31.2" rx="6" stroke="#F2F2F2" stroke-width="0.8"/>
<path d="M19.2642 10.2121L14.7991 21.8185H11.8859L9.68865 12.5568C9.55525 11.9863 9.43996 11.7773 9.03354 11.537C8.37116 11.1455 7.27731 10.7782 6.3158 10.55L6.38116 10.2127H11.0706C11.6683 10.2127 12.2057 10.6462 12.3414 11.3961L13.5018 18.1113L16.3699 10.2117H19.2652L19.2642 10.2121ZM30.6784 18.0291C30.6901 14.9658 26.7904 14.7973 26.8172 13.4287C26.8256 13.0122 27.1902 12.5694 27.9862 12.4564C28.3811 12.4001 29.4691 12.3571 30.704 12.9758L31.188 10.5146C30.5249 10.2524 29.6717 10 28.6102 10C25.8863 10 23.9693 11.5776 23.9531 13.8366C23.9353 15.5075 25.3209 16.4399 26.3655 16.9951C27.4396 17.5637 27.8 17.929 27.796 18.4376C27.7883 19.2162 26.9392 19.5601 26.1458 19.5734C24.7603 19.5966 23.9568 19.1651 23.3161 18.8405L22.8166 21.3832C23.4605 21.7051 24.6491 21.9859 25.8813 22C28.7767 22 30.6704 20.4419 30.6793 18.0291H30.6784ZM37.8722 21.8185H40.4211L38.195 10.2121H35.8428C35.5916 10.2097 35.3455 10.2897 35.1365 10.4415C34.9274 10.5933 34.7651 10.8101 34.6704 11.0636L30.535 21.8185H33.4288L34.0029 20.0849H37.5386L37.8722 21.8185ZM34.7973 17.7061L36.2478 13.3483L37.0827 17.7061H34.7973ZM23.2017 10.2121L20.9229 21.8185H18.1671L20.4468 10.2121H23.2017Z" fill="#1434CB"/>
</svg>
